<?xml version="1.0" encoding="UTF-8" standalone="no"?>
<svg
   xmlns:dc="http://purl.org/dc/elements/1.1/"
   xmlns:cc="http://creativecommons.org/ns#"
   xmlns:rdf="http://www.w3.org/1999/02/22-rdf-syntax-ns#"
   xmlns:svg="http://www.w3.org/2000/svg"
   xmlns="http://www.w3.org/2000/svg"
   viewBox="0 0 3210.6667 3189.3333"
   height="3189.3333"
   width="3210.6667"
   xml:space="preserve"
   id="svg2"
   version="1.1"><metadata
     id="metadata8"><rdf:RDF><cc:Work
         rdf:about=""><dc:format>image/svg+xml</dc:format><dc:type
           rdf:resource="http://purl.org/dc/dcmitype/StillImage" /></cc:Work></rdf:RDF></metadata><defs
     id="defs6"><clipPath
       id="clipPath18"
       clipPathUnits="userSpaceOnUse"><path
         id="path16"
         d="M 0,2392 H 2408 V 0 H 0 Z" /></clipPath></defs><g
     transform="matrix(1.3333333,0,0,-1.3333333,0,3189.3333)"
     id="g10"><g
       id="g12"><g
         clip-path="url(#clipPath18)"
         id="g14"><g
           transform="translate(1204.0098,2250.3203)"
           id="g20"><path
             id="path22"
             style="fill:#231f20;fill-opacity:1;fill-rule:nonzero;stroke:none"
             d="m 0,0 c -581.367,0 -1054.335,-472.969 -1054.335,-1054.32 0,-581.36 472.968,-1054.321 1054.335,-1054.321 581.348,0 1054.309,472.961 1054.309,1054.321 C 1054.309,-472.969 581.348,0 0,0 m 0,-2119.813 c -587.519,0 -1065.504,477.977 -1065.504,1065.493 0,587.508 477.985,1065.492 1065.504,1065.492 587.5,0 1065.477,-477.984 1065.477,-1065.492 C 1065.477,-1641.836 587.5,-2119.813 0,-2119.813" /></g><g
           transform="translate(1204.0098,2280.5781)"
           id="g24"><path
             id="path26"
             style="fill:#231f20;fill-opacity:1;fill-rule:nonzero;stroke:none"
             d="m 0,0 c -598.035,0 -1084.563,-486.531 -1084.563,-1084.563 0,-598.054 486.528,-1084.593 1084.563,-1084.593 598.023,0 1084.543,486.539 1084.543,1084.593 C 1084.543,-486.531 598.023,0 0,0 m 0,-2218.461 c -625.214,0 -1133.867,508.664 -1133.867,1133.898 0,625.211 508.653,1133.868 1133.867,1133.868 625.203,0 1133.848,-508.657 1133.848,-1133.868 0,-625.234 -508.645,-1133.898 -1133.848,-1133.898" /></g><g
           transform="translate(1208.8496,1644.7031)"
           id="g28"><path
             id="path30"
             style="fill:#231f20;fill-opacity:1;fill-rule:nonzero;stroke:none"
             d="M 0,0 C 8.407,-10.719 4.02,-13.195 0,-20.93 -4.046,-13.195 -8.406,-10.719 0,0 m -24.542,-46.735 c -20.262,19.743 16.421,44.438 20.663,8.243 -41.82,-12.914 49.637,-12.914 7.782,0 4.23,36.195 40.972,11.5 20.593,-8.243 35.942,9.094 29.395,46.337 -9.972,43.79 C 16.383,8.328 6.274,15.125 0,24.086 -6.3,15.125 -16.312,8.328 -14.48,-2.945 c -39.496,2.547 -45.895,-34.696 -10.062,-43.79" /></g><g
           transform="translate(1321.959,1508.5)"
           id="g32"><path
             id="path34"
             style="fill:#231f20;fill-opacity:1;fill-rule:nonzero;stroke:none"
             d="M 0,0 C -3.742,10.531 5.703,20.25 14.816,19.227 19.812,18.68 24.555,14.172 20.852,6.437 18.149,0.562 3.235,-10.532 -11.012,-13.18 -7.347,-9.907 -3.367,-5.219 0,0 m -247.089,6.437 c -3.633,7.735 1.117,12.243 6.027,12.79 9.082,1.023 18.527,-8.696 14.882,-19.227 3.321,-5.219 7.379,-9.907 10.966,-13.18 -14.258,2.648 -29.102,13.742 -31.875,19.617 m -594.606,10.211 c 11.231,24.469 18.5,15.375 41.555,22.891 -18.782,-12.797 -8.57,-21.696 -41.555,-22.891 m 1457.218,0 c -32.921,1.195 -22.652,10.094 -41.425,22.891 23.027,-7.516 30.238,1.578 41.425,-22.891 m 38.684,-50.031 c -15.285,-33.351 -76.66,-62.828 -112.285,-40.399 17.262,-4.625 39.289,14.798 19.144,19.04 -51.207,10.758 -49.968,35.078 -73.722,61.101 51.441,-10.172 10.758,22.133 -8.719,31.836 15.852,-2.039 25.496,-7.593 44.426,8.055 -12.485,1.555 -24.949,7.586 -38.586,15.82 -31.824,19.235 -55.516,32.821 -105.567,32.211 55.516,7.437 111.172,-8.968 161.594,-35.484 -3.215,-7.117 6.621,-17.383 17.145,-11.469 36.273,-17.672 -3.43,-60.508 -24.516,-16.391 -10.777,-40.875 53.324,-67.46 59.281,-22.39 16.989,-14.266 31.59,-8.586 53.633,-5.82 -7.426,12.234 -8.973,26.031 -25.531,32.953 33.195,32.125 -12.25,65.765 -51.617,41.718 42.074,2.594 47.675,-47.656 -4.45,-24.046 2.665,8.609 -6.957,14.796 -17.363,10.789 -83.89,40.507 -134.703,57.242 -229.492,27.711 38.918,25.359 104.074,31.054 153.559,15.109 27.316,-8.828 57.257,-6.648 66.156,20.75 -34.059,-20.828 -42.133,6.055 -63.004,-11.656 -15.324,16.742 -51.262,42.663 -84.969,17.851 31.254,32.039 -42.035,44.461 -71.527,-16.375 20.066,56.312 -68.961,45.024 -39.192,18.672 -27.082,6.664 -44.601,-16.765 -32.023,-31.469 6.43,-7.586 25.047,-13.109 36.844,0.758 -18.422,-4.75 -28.887,9.11 -21.047,16.547 6.66,6.398 23.457,9.039 30.883,-5.422 5.84,-11.524 -0.391,-30.226 -52.969,-61.484 -38.801,-23.016 -81.383,-36.25 -111.25,-30.18 -76.09,15.406 -91.355,112.195 -228.886,57.61 -4.524,-1.758 -8.934,-3.704 -13.266,-5.727 -4.281,2.023 -8.719,3.969 -13.188,5.727 -137.566,54.585 -152.824,-42.204 -228.945,-57.61 -29.824,-6.07 -72.43,7.164 -111.199,30.18 -52.618,31.258 -58.898,49.96 -52.981,61.484 7.41,14.461 24.242,11.82 30.895,5.422 7.75,-7.437 -2.683,-21.297 -21.094,-16.547 11.805,-13.867 30.324,-8.344 36.801,-0.758 12.648,14.704 -4.871,38.133 -31.961,31.469 29.797,26.352 -59.223,37.64 -39.183,-18.672 -29.454,60.836 -102.754,48.414 -71.43,16.375 -33.715,24.812 -69.637,-1.109 -84.941,-17.851 -20.958,17.711 -28.974,-9.172 -63.079,11.656 8.965,-27.398 38.918,-29.578 66.176,-20.75 49.492,15.945 114.609,10.25 153.52,-15.109 -94.801,29.531 -145.524,12.796 -229.418,-27.711 -10.395,4.007 -20.074,-2.18 -17.379,-10.789 -52.117,-23.61 -46.496,26.64 -4.461,24.046 -39.426,24.047 -84.813,-9.593 -51.547,-41.718 -16.609,-6.922 -18.227,-20.719 -25.633,-32.953 22.105,-2.766 36.742,-8.446 53.684,5.82 5.957,-45.07 70.105,-18.485 59.262,22.39 -21.04,-44.117 -60.801,-1.281 -24.536,16.391 10.61,-5.914 20.489,4.352 17.145,11.469 50.441,26.516 106.137,42.921 161.542,35.484 -49.988,0.61 -73.621,-12.976 -105.456,-32.211 -13.629,-8.234 -26.133,-14.265 -38.614,-15.82 18.957,-15.648 28.582,-10.094 44.434,-8.055 -19.449,-9.703 -60.152,-42.008 -8.672,-31.836 -23.801,-26.023 -22.563,-50.343 -73.761,-61.101 -20.125,-4.242 1.831,-23.665 19.069,-19.04 -35.53,-22.429 -96.913,7.048 -112.288,40.399 31.246,-19.578 24.476,48.094 -37.117,40.274 31.004,-6.5 20.636,-42.914 49.757,-70.625 13.239,-12.571 43.817,-28.032 73.582,-27.86 73.008,0.383 75.93,42.742 92.782,89.617 19.996,55.688 38.39,76.829 106.788,80.665 -85.359,-32.438 -13.655,-96.157 42.047,-39.524 -21.519,-14.969 -35.117,3.133 -57.273,-12.273 15.942,12.672 3.597,24.234 5.93,34.554 10.023,-19.852 29.421,-6.586 32.734,1.813 4.195,10.297 18.734,12.289 33.855,10.297 30.473,-4 54.302,-24.602 81.313,-35.907 42.047,-17.555 72.547,-24.609 105.332,-18.75 32.316,5.805 45.187,24.852 82.668,50.594 39.555,26.422 88.977,17.172 125.75,-9.312 -19.176,-13.5 -33.629,-29.5 -39.515,-46.696 41.788,28.211 41.554,-23.023 -1.571,-27.367 -16.281,-1.664 -28.09,4.524 -33.656,14.406 10.543,24.016 -26.543,44.969 -44.188,16.602 15.469,31.414 1.919,34.977 5.27,52.266 -90.192,-68.438 80.207,-142.368 133.617,-50.844 2.734,4.695 5.782,9.211 9.133,13.531 3.351,-4.32 6.41,-8.836 9.133,-13.531 C -50.597,-72.977 119.875,0.953 29.711,69.391 32.985,52.102 19.52,48.539 34.961,17.125 17.286,45.492 -19.789,24.539 -9.168,0.523 c -5.625,-9.882 -17.519,-16.07 -33.707,-14.406 -43.25,4.344 -43.426,55.578 -1.664,27.367 -5.879,17.196 -20.285,33.196 -39.429,46.696 36.8,26.484 86.144,35.734 125.73,9.312 37.449,-25.742 50.403,-44.789 82.598,-50.594 32.843,-5.859 63.316,1.195 105.39,18.75 27.082,11.305 50.871,31.907 81.305,35.907 15.168,1.992 29.73,0 33.863,-10.297 3.371,-8.399 22.812,-21.665 32.844,-1.813 2.332,-10.32 -10.032,-21.882 5.898,-34.554 -22.125,15.406 -35.723,-2.696 -57.301,12.273 55.813,-56.633 127.399,7.102 42.055,39.524 68.41,-3.836 86.813,-24.977 106.859,-80.665 16.891,-46.875 19.774,-89.234 92.692,-89.617 29.805,-0.109 60.414,15.289 73.722,27.86 29.04,27.711 18.618,64.125 49.754,70.625 -61.707,7.82 -68.468,-59.852 -37.234,-40.274" /></g><g
           transform="translate(1536.7754,838.8984)"
           id="g36"><path
             id="path38"
             style="fill:#231f20;fill-opacity:1;fill-rule:nonzero;stroke:none"
             d="m 0,0 0.297,0.258 -1,-0.508 C -0.449,-0.195 -0.273,-0.078 0,0 m -655.762,0 -0.363,0.258 1.02,-0.508 c -0.219,0.055 -0.415,0.172 -0.657,0.25 m 327.836,52.305 c -1.937,3.726 -4.015,4.898 0,10.031 4.02,-5.133 1.969,-6.305 0,-10.031 m 0,21.554 c -2.996,-4.312 -7.777,-7.562 -6.945,-12.953 -18.851,1.258 -21.949,-16.617 -4.762,-20.906 -9.73,9.383 7.828,21.242 9.907,3.977 -10.044,-3.094 -4.137,-4.704 1.8,-4.704 5.899,0 11.856,1.61 1.871,4.704 2.032,17.265 19.547,5.406 9.868,-3.977 17.148,4.289 14.109,22.164 -4.781,20.906 0.902,5.391 -3.958,8.641 -6.958,12.953 m 272.371,-145.68 c 15.364,22.399 27.809,42.899 42.172,58.79 -2.039,0.867 -3.898,1.725 -5.82,2.531 -40.289,-23.617 -76.348,-53.008 -121.578,-63.945 23.379,-15.111 2.668,-46.383 -23.711,-40.876 8.528,15.321 -1.41,26.415 -18.145,35.602 -13.05,-22.337 -52.871,20.538 -76.718,32.828 19.867,-19.461 0.527,-52.265 -35.454,-47.367 -20.32,3.195 -30.617,13.031 -33.117,23.125 -2.488,-10.094 -12.816,-19.93 -33.058,-23.125 -36,-4.898 -55.332,27.906 -35.411,47.367 -23.917,-12.29 -63.706,-55.165 -76.827,-32.828 -16.688,-9.187 -26.602,-20.281 -18.106,-35.602 -26.379,-5.507 -47.023,25.765 -23.695,40.876 -45.247,10.937 -81.305,40.328 -121.606,63.945 -1.831,-0.806 -3.788,-1.664 -5.808,-2.531 14.363,-15.891 26.73,-36.391 42.14,-58.79 -23.515,5.86 -36.066,22.438 -48.207,38.727 2.813,-19.07 -7.894,-18.695 -13.46,-9.679 -4.911,7.773 -6.828,16.062 -9.262,24.375 -11.915,0.257 -24.191,3.921 -35.165,13.054 9.849,-0.039 17.149,2.68 22.008,8.227 -19.46,12.781 -50.492,-17.227 -46.258,11.523 -22.812,-3.547 -31.835,-23.773 -17.804,-37.859 -5.547,23.828 35.227,15.93 27.75,-1.234 -4.059,-9.251 -21.078,-13.641 -33.481,-2.744 -20.519,17.986 -3.546,46.228 23.348,51.025 6.652,1.234 12.543,1.554 17.832,0.906 66.324,0.078 143.516,-86.445 224,-84.695 56.918,1.172 133.137,44.656 140.976,76.812 6.075,24.914 -30.914,34.438 -41.769,16.327 10.473,-2.467 0.477,-14.46 -2.707,-23.358 -19.918,25.789 11.121,41.836 32.816,36.43 19.379,-4.883 23.739,-21.516 19.606,-32.789 -11.563,-31.274 -76.64,-68.158 -48.011,-92.352 13.698,-11.641 35.968,-4.625 40.565,4.547 6.336,12.633 -15.698,23.414 -28.515,10.484 -5.543,8.656 13.309,23.61 29.493,20.047 9.964,-2.259 16.659,-8.976 18.616,-16.859 2.039,7.883 8.664,14.6 18.598,16.859 16.286,3.563 35.058,-11.391 29.531,-20.047 -12.796,12.93 -34.82,2.149 -28.55,-10.484 4.625,-9.172 26.867,-16.188 40.621,-4.547 28.613,24.194 -36.43,61.078 -47.969,92.352 -4.196,11.273 0.175,27.906 19.554,32.789 21.677,5.406 52.715,-10.641 32.825,-36.43 -3.254,8.898 -13.226,20.891 -2.781,23.358 -10.856,18.111 -47.738,8.587 -41.684,-16.327 7.821,-32.156 84.109,-75.64 140.976,-76.812 80.466,-1.75 157.657,84.773 224.008,84.695 5.352,0.648 11.152,0.328 17.852,-0.906 26.828,-4.797 43.8,-33.039 23.398,-51.025 -12.5,-10.897 -29.512,-6.507 -33.566,2.744 -7.528,17.164 33.332,25.062 27.707,1.234 14.148,14.086 5.074,34.312 -17.735,37.859 4.196,-28.75 -26.867,1.258 -46.285,-11.523 4.84,-5.547 12.188,-8.266 21.985,-8.227 -11.012,-9.133 -23.2,-12.797 -35.137,-13.054 -2.43,-8.313 -4.348,-16.602 -9.207,-24.375 -5.606,-9.016 -16.324,-9.391 -13.563,9.679 -12.187,-16.289 -24.672,-32.867 -48.207,-38.727" /></g><g
           transform="translate(534.6348,1089.4219)"
           id="g40"><path
             id="path42"
             style="fill:#231f20;fill-opacity:1;fill-rule:nonzero;stroke:none"
             d="m 0,0 c 7.027,-8.329 21.137,-16.719 33.316,-22.579 10.258,-4.444 30.071,-10.929 41.653,-12.241 5.074,9.054 16.625,26.414 19.172,30.898 4.5,9 5.164,29.57 3.863,47.602 -1.285,15.445 -3.207,27.633 -7.047,37.273 L 46.121,39.836 C 28.828,24.414 14.09,11.602 0,0 m 27.543,128.562 c -33.949,0 -51.891,-28.976 -53.175,-59.187 C -26.875,42.352 -12.816,16.07 -4.469,5.758 8.965,16.695 25.008,30.219 42.301,45.695 57.672,59.125 73.036,73.25 87.735,86.734 74.969,110.546 53.844,128.562 27.543,128.562 M 103.313,8.328 c 14.785,23.164 55.164,81.593 77.555,110.524 39.081,50.984 73.632,78.343 103.054,92.312 -14.656,-0.633 -38.379,-9.562 -60.746,-21.586 -30.149,-16.5 -60.879,-43.195 -85.844,-65.57 -15.343,-14.103 -27.542,-25.703 -40.613,-37.899 3.293,-9.015 7.289,-21.875 8.582,-41.781 0.648,-11.625 0,-24.398 -1.988,-36 M -240.75,-19.305 c 0,23.11 16.606,39.235 33.293,39.844 14.68,1.352 23.664,-7.134 23.664,-19.281 0,-9.587 -5.762,-15.367 -14.726,-21.853 -6.36,-4.491 -11.524,-9 -11.524,-16.014 0,-13.539 21.145,-24.414 62.727,-21.282 49.972,4.532 98.011,31.555 133.227,55.969 -12.161,10.875 -35.216,39.82 -35.216,72.547 0.669,38.578 30.063,68.117 76.203,67.492 34.567,-1.265 58.946,-28.914 66.618,-46.226 8.477,8.343 22.73,21.203 30.375,28.257 33.941,30.664 63.992,56.063 96.058,73.211 24.282,13.305 51.817,24.219 76.809,24.219 12.172,0 19.207,-3.851 22.41,-6.414 3.872,-3.195 6.406,-7.625 4.497,-8.906 -1.282,-0.656 -2.575,1.281 -7.055,4.406 -2.574,1.953 -8.973,3.867 -14.09,3.867 -7.016,0 -14.129,-1.914 -20.489,-6.992 -14.07,-11.414 -37.152,-38.766 -51.91,-59.734 C 190.449,88.664 146.915,22.477 110.445,-37.25 c 10.25,0.641 23.008,4.469 35.845,10.914 13.038,6.836 29.159,19.141 39.405,28.688 3.852,3.843 28.2,25.007 42.86,37.117 21.781,28.844 48.707,63.429 77.511,96.086 37.086,42.929 115.239,124.961 148.532,147.984 17.933,12.836 35.891,25.625 54.461,25.625 16.625,0 21.761,-11.523 19.809,-23.039 C 523.766,255.352 462.348,204.109 397.621,150.296 358.574,118.219 314.395,87.484 267.012,45.914 256.098,33.703 229.239,-5.367 213.895,-27.75 c 15.98,12.148 37.117,30.805 59.503,47.367 22.411,16.672 50.61,34.625 69.754,34.625 13.532,0 21.157,-6.429 19.91,-17.321 -1.89,-11.444 -15.331,-26.241 -25.589,-39.038 -10.27,-12.172 -17.305,-21.774 -21.164,-28.18 -4.489,-7.664 -5.137,-12.148 -2.578,-14.109 3.222,-2.571 10.277,0 15.402,2.586 7.672,3.859 16,8.312 30.699,19.812 10.883,8.367 23.73,19.891 30.774,26.336 5.125,4.468 7.015,5.039 8.3,3.781 1.262,-1.25 -0.667,-3.781 -5.116,-8.304 -5.759,-5.766 -24.993,-23.086 -38.446,-33.313 -12.797,-9.601 -37.762,-25.594 -57.605,-25.594 -12.766,0 -19.821,5.743 -19.196,16.657 0.629,14.07 14.727,30.062 26.887,44.797 9.621,11.5 19.207,21.773 26.906,31.351 2.559,3.218 3.82,7.078 0.637,8.977 -3.203,1.937 -10.258,-0.625 -16.664,-3.836 C 304.793,33.141 286.871,22.18 266.387,6.195 238.215,-15.602 222.84,-30.297 194.602,-52.086 c -5.68,-4.469 -9.524,-5.805 -16.625,-5.805 -8.937,0 -12.778,1.336 -8.282,10.289 6.379,12.11 15.383,26.907 26.25,42.875 5.125,7.782 11.492,16.055 19.184,25.672 -9.589,-7.718 -17.223,-14.75 -24.289,-21.14 l -2.957,-3 c -8.918,-8.368 -23.664,-20.617 -39.684,-28.946 -13.433,-7.015 -28.777,-10.89 -40.976,-11.523 -9.219,-9.695 -15.629,-14.227 -25.219,-16.102 -18.617,-3.843 -17.922,4.461 -15.367,8.993 1.914,3.796 3.844,7.109 5.098,9.562 -11.544,1.25 -30.727,7.07 -41.633,11.563 -14.09,5.757 -29.492,14.812 -37.801,22.553 -24.34,-17.382 -81.336,-54.593 -141.508,-59.061 -49.922,-3.899 -91.543,11.523 -91.543,46.851 m 518.012,81.821 c 60.808,53.211 85.164,69.171 114.629,94.812 61.414,53.203 118.41,104.453 120.969,132.593 0.676,8.352 -3.801,12.196 -10.856,12.196 -10.867,0 -28.172,-12.812 -41.652,-25.609 C 439.286,255.352 408.527,224.594 375.203,184.859 328.485,129.18 311.82,108.633 277.262,62.516" /></g><g
           transform="translate(1665.5645,1228.8271)"
           id="g44"><path
             id="path46"
             style="fill:#231f20;fill-opacity:1;fill-rule:nonzero;stroke:none"
             d="m 0,0 c 8.938,0 12.836,-7.069 5.133,-16.671 -7.66,-10.234 -23.731,-17.258 -30.176,-17.258 -3.195,3.86 -3.766,13.438 -0.57,21.711 C -21.773,-2.554 -12.188,0 0,0 m 218.441,-91.593 c -12.875,0 -35.902,-17.304 -58.964,-40.304 -26.223,-25.696 -37.079,-42.329 -35.864,-50.618 0.688,-4.492 3.84,-6.375 8.309,-6.375 12.23,0 36.547,13.993 53.871,30.047 20.441,17.984 43.504,45.461 44.172,55.727 0.586,8.328 -4.488,11.523 -11.524,11.523 m 15.891,-17.969 c 15.445,16.071 26.281,24.399 36.629,24.399 13.422,0.609 14.676,-2.587 8.269,-10.305 -8.269,-9.586 -22.418,-25.578 -35.902,-42.211 -8.289,-10.273 -16.598,-21.164 -22.379,-31.398 -4.449,-7.68 -4.449,-12.774 -1.922,-14.735 3.254,-2.57 9.625,0 14.778,2.586 6.406,3.196 18.48,11.524 28.746,19.813 7.625,6.195 14.191,11.641 19.715,16.539 6.293,9.937 16.207,16.578 26.379,16.148 8.972,-0.609 13.46,-7.07 12.207,-14.07 -1.313,-6.406 -5.782,-11.523 -14.09,-16.047 -5.801,-3.195 -14.032,-10.234 -14.735,-19.187 -0.648,-10.227 7.055,-16.008 18.575,-16.008 12.777,0 28.808,10.226 42.937,34.601 11.523,18.578 23.027,56.953 30,65.243 -6.328,-5.743 -19.789,-15.938 -30.707,-23.633 -8.953,-6.414 -19.184,-12.782 -24.316,-15.383 -2.61,-1.312 -5.137,-2.586 -6.411,-0.609 -0.605,1.922 0,3.21 3.215,5.093 6.426,3.86 16.657,10.266 26.848,17.93 11.582,8.312 23.121,17.953 37.82,30.711 1.254,2.563 5.742,7.703 10.211,10.875 7.094,5.172 14.11,7.094 18.594,7.094 14.758,0 5.098,-8.289 -3.172,-13.461 -5.781,-3.82 -12.172,-6.453 -15.422,-9.586 -5.097,-5.133 -4.469,-10.305 -4.469,-17.321 0.625,-17.929 1.899,-34.57 -5.742,-52.523 -3.879,-8.914 -12.777,-21.102 -20.437,-26.219 7.015,2.492 17.832,7.68 28.078,14.071 17.992,10.836 31.453,22.383 42.269,32.078 3.254,2.531 6.43,5.742 8.289,3.781 1.356,-1.25 -1.175,-5.055 -6.953,-10.226 -6.41,-5.797 -18.617,-16.071 -32.726,-25.633 -14.012,-9.602 -28.141,-16.657 -40.235,-21.735 -11.578,-5.148 -34.625,-11.539 -53.808,-11.539 -34,0 -40.996,20.5 -38.41,38.391 0.175,1.609 0.527,3.195 0.922,4.742 -6.293,-5.367 -12.973,-10.976 -18.852,-15.617 -12.816,-10.211 -34,-25.594 -55.047,-25.594 -12.23,0 -17.969,5.742 -18.598,13.422 -0.585,7.055 3.215,16.008 8.957,23.047 -17.304,-14.071 -46.718,-35.258 -71.039,-36.469 -14.109,-0.664 -28.882,5.117 -26.316,25.594 1.254,9.617 6.426,19.867 17.988,33.312 l -3.234,-1.921 c -1.527,-1.532 -3.43,-3.172 -5.801,-5.157 -7.484,-6.289 -16.695,-13.476 -26.863,-20.476 -14.133,-9.602 -28.18,-16.657 -40.352,-21.735 -11.601,-5.148 -34.586,-11.539 -53.871,-11.539 -33.902,0 -40.957,20.5 -38.406,38.391 l 0.82,4.273 c -5.996,-5.235 -12.422,-10.562 -18.144,-15.148 -12.817,-10.211 -34.551,-26.258 -55.696,-26.258 -13.441,0 -19.164,6.406 -19.164,16.656 0,8.289 4.411,16.594 9.543,24.36 12.836,19.804 37.821,46.109 48.032,55.039 -4.469,-1.938 -17.911,-11.539 -27.532,-19.203 -8.425,-6.797 -14.972,-12.11 -20.773,-17.165 l -2.918,-2.687 c -5.703,-5.148 -12.133,-10.875 -20.461,-16.672 -10.289,-7.078 -17.91,-10.234 -24.301,-11.562 -5.797,-1.196 -13.46,-1.196 -17.339,1.328 -16.637,-12.774 -46.738,-31.352 -72.977,-31.352 -19.89,0 -32.023,9.586 -31.356,28.164 0.606,12.828 8.329,28.133 20.516,40.969 -5.211,-3.226 -7.719,-5.758 -12.187,-9.563 l -3.059,-2.391 c -14.675,-13.397 -30.352,-27.077 -43.719,-36.194 -26.218,-18.477 -58.926,-34.485 -96.706,-36.352 -53.145,-1.992 -90.262,17.25 -92.224,64.477 -1.878,56.062 51.883,116.734 105.04,155.156 -8.977,11.523 -16.032,25.648 -16.032,40.344 0,35.882 30.727,59.593 65.337,59.593 30.765,0 61.511,-15.39 78.796,-40.336 8.934,2.547 22.379,5.125 33.922,5.774 40.309,2.547 81.363,-8.992 74.269,-48.031 -7.054,-39.766 -74.269,-58.961 -122.949,-58.961 -35.879,0 -73.64,8.304 -96.667,25.562 -48.7,-43.461 -83.254,-101.476 -83.254,-142.984 0,-36.938 23.054,-51.633 55.093,-51.633 37.723,0 67.844,16.594 92.77,33.172 16.715,11.484 32.058,24.867 39.762,31.922 4.269,3.882 7.25,6.609 9.425,8.054 4.723,4.157 11.188,9.157 16.188,12.641 8.367,5.766 17.242,11.484 30.746,18.562 18.496,9.641 38.406,16.657 53.145,17.321 4.507,0 9.562,0 9.562,-2.587 0,-1.272 -1.899,-1.272 -7.016,-3.843 -15.344,-7.031 -28.179,-17.969 -46.129,-35.172 -18.558,-18.601 -35.863,-43.64 -37.136,-56.359 -0.606,-6.469 1.921,-10.914 8.996,-10.914 14.07,0 39.644,17.281 59.515,39.031 0.684,6.414 3.231,16.031 11.559,26.93 7.035,9.617 16.012,14.695 20.5,16.633 1.879,4.468 1.879,11.507 1.879,14.718 0,7.055 -2.528,8.976 -0.645,10.274 2.625,1.289 6.387,-1.298 8.957,-3.844 5.172,-5.172 8.973,-12.82 7.719,-22.422 -1.941,-15.359 -16.676,-33.961 -36.488,-51.906 2.527,-1.297 9.582,-0.648 12.187,0 5.742,1.328 12.758,4.523 21.754,10.93 7.602,5.273 12.543,9.547 18.793,15.093 9.348,8.563 32.375,27.805 47.777,38.039 16.598,11.54 24.946,14.11 37.153,14.11 13.465,0 14.699,-1.907 7.074,-10.274 -11.563,-12.836 -21.809,-24.961 -34.605,-40.953 -10.958,-13.468 -18.559,-25.008 -22.438,-31.398 -3.824,-7.032 -4.469,-11.539 -1.883,-14.047 3.176,-2.57 8.938,-1.273 15.305,1.898 6.469,3.196 17.344,10.289 28.18,19.188 8.367,6.758 13.738,11.304 19.027,16.008 6.234,10.586 16.559,17.734 27.141,17.304 8.957,-0.609 13.445,-7.07 12.132,-14.07 -1.214,-6.406 -5.742,-11.523 -14.148,-16.047 -5.625,-3.195 -13.953,-10.234 -14.66,-19.187 -0.645,-10.227 7.015,-16.008 18.558,-16.008 12.778,0 28.829,10.226 42.977,34.601 11.519,18.578 23.082,56.953 30.059,65.243 -6.387,-5.743 -19.832,-15.938 -30.766,-23.633 -8.918,-6.414 -19.145,-12.782 -24.301,-15.383 -2.566,-1.312 -5.191,-2.586 -6.406,-0.609 -0.629,1.922 0,3.21 3.215,5.093 6.386,3.86 16.617,10.266 26.886,17.93 11.54,8.312 23.082,17.953 37.801,30.711 1.293,2.563 5.742,7.703 10.266,10.875 6.996,5.172 14.07,7.094 18.5,7.094 14.797,0 5.176,-8.289 -3.113,-13.461 -5.782,-3.82 -12.192,-6.453 -15.387,-9.586 -5.133,-5.133 -4.524,-10.305 -4.524,-17.321 0.645,-17.929 1.938,-34.57 -5.742,-52.523 -3.824,-8.914 -12.816,-21.102 -20.5,-26.219 7.094,2.492 17.93,7.68 28.18,14.071 17.973,10.836 31.394,22.383 42.387,32.078 l 2.726,2.234 c 4.25,3.531 10.699,8.703 15.086,11.797 6.371,4.508 17.324,11.484 29.496,17.93 25.004,12.82 47.344,20.5 64,17.953 12.856,-1.938 17.344,-13.461 13.383,-24.399 m -129.297,-37.117 c 2.371,1.985 4.274,3.625 5.801,5.157 l -6.543,-5.743 z M -384.836,95.454 c -27.55,0 -51.91,-19.828 -51.91,-51.914 0,-12.195 4.508,-24.953 12.836,-35.844 34.551,23.07 76.84,42.922 112.68,53.157 -19.832,21.828 -46.777,34.601 -73.606,34.601 m 70.43,-126.813 c 46.679,0 90.871,22.344 97.965,53.813 6.406,29.43 -14.149,42.883 -48.012,42.25 -9.582,0 -26.32,-3.18 -33.941,-6.398 5.093,-9 9.523,-23.703 10.875,-35.235 1.312,-10.25 0,-16.656 -1.977,-16 -1.277,0.625 -0.609,3.82 -2.531,12.805 -2.547,12.773 -9.621,27.562 -15.363,35.211 -33.922,-12.821 -72.367,-37.813 -99.883,-62.805 22.437,-16.609 58.281,-23.641 92.867,-23.641" /></g><g
           transform="translate(1204.0098,2166.8779)"
           id="g48"><path
             id="path50"
             style="fill:#231f20;fill-opacity:1;fill-rule:nonzero;stroke:none"
             d="m 0,0 c -535.346,0 -970.882,-435.541 -970.882,-970.896 0,-535.336 435.536,-970.861 970.882,-970.861 535.338,0 970.863,435.525 970.863,970.861 C 970.863,-435.541 535.338,0 0,0 m 0,-1948.838 c -539.255,0 -977.963,438.704 -977.963,977.942 0,539.256 438.708,977.976 977.963,977.976 539.243,0 977.943,-438.72 977.943,-977.976 0,-539.238 -438.7,-977.942 -977.943,-977.942" /></g></g></g></g></svg>